<?xml version="1.0"?>
<svg xmlns="http://www.w3.org/2000/svg" xmlns:xlink="http://www.w3.org/1999/xlink" xmlns:svgjs="http://svgjs.com/svgjs" version="1.1" width="512" height="512" x="0" y="0" viewBox="0 0 60 60" style="enable-background:new 0 0 512 512" xml:space="preserve" class=""><g><g xmlns="http://www.w3.org/2000/svg" id="Page-1" fill="none" fill-rule="evenodd"><g id="061---Locked-Folder" fill="rgb(0,0,0)" fill-rule="nonzero"><path id="Shape" d="m8 14h-2c-.55228475 0-1 .4477153-1 1s.44771525 1 1 1h2c.55228475 0 1-.4477153 1-1s-.44771525-1-1-1z" fill="#ff630e" data-original="#000000" style=""/><path id="Shape" d="m29 15c0-.5522847-.4477153-1-1-1h-16c-.5522847 0-1 .4477153-1 1s.4477153 1 1 1h16c.5522847 0 1-.4477153 1-1z" fill="#ff630e" data-original="#000000" style=""/><path id="Shape" d="m22 60h16c3.3123376-.0033074 5.9966926-2.6876624 6-6v-7h5.16c2.3824387-.0044534 4.4317949-1.6870167 4.9-4.023l5.879-29.39c.1757114-.8806536-.0523257-1.7937092-.6214656-2.488335-.56914-.6946257-1.419523-1.0977637-2.3175344-1.098665h-1v-1c0-2.209139-1.790861-4-4-4h-26v-1c0-2.209139-1.790861-4-4-4h-14c-2.209139 0-4 1.790861-4 4v6h-1c-.89797307.0006617-1.7484314.4035384-2.31775774 1.0979616s-.79764663 1.6073629-.62224226 2.4880384l5.879 29.389c.46744844 2.337146 2.51756925 4.0208302 4.901 4.025h5.16v7c.0033074 3.3123376 2.6876624 5.9966926 6 6zm20-6c0 2.209139-1.790861 4-4 4h-16c-2.209139 0-4-1.790861-4-4v-15c0-.5522847.4477153-1 1-1h22c.5522847 0 1 .4477153 1 1zm-2-18h-2v-3c0-4.418278-3.581722-8-8-8s-8 3.581722-8 8v3h-2v-3c0-5.5228475 4.4771525-10 10-10s10 4.4771525 10 10zm-16 0v-3c0-3.3137085 2.6862915-6 6-6s6 2.6862915 6 6v3zm-18-32c0-1.1045695.8954305-2 2-2h14c1.1045695 0 2 .8954305 2 2v1c0 1.1045695.8954305 2 2 2h26c1.1045695 0 2 .8954305 2 2v1h-48zm4.84 41c-1.42988921-.003583-2.65935336-1.0139182-2.94-2.416l-5.879-29.392c-.06267987-.2911108.01096846-.5949102.2-.825.19099854-.2335962.4772625-.36846.779-.367h54c.3003377-.0002547.5848863.1344928.775.367.1890648.2304652.2626992.534575.2.826l-5.875 29.393c-.2793482 1.4025642-1.5098879 2.4129461-2.94 2.414h-5.16v-6c-.0052514-1.2667854-.8056491-2.3937454-2-2.816v-3.184c0-6.627417-5.372583-12-12-12s-12 5.372583-12 12v3.184c-1.1943509.4222546-1.9947486 1.5492146-2 2.816v6z" fill="#ff630e" data-original="#000000" style=""/><path id="Shape" d="m32.573 42.938c-1.5801299-1.3010688-3.8875142-1.1993497-5.3470238.235719-1.4595096 1.4350686-1.6001771 3.7404064-.3259762 5.342281l-.5 2.991c-.1449642.8701417.1003839 1.7599847.6707961 2.4328823.5704122.6728975 1.4080696 1.0606427 2.2902039 1.0601177h1.278c.8821343.000525 1.7197917-.3872202 2.2902039-1.0601177.5704122-.6728976.8157603-1.5627406.6707961-2.4328823l-.5-2.99c.5844338-.7083219.902805-1.5987.9-2.517.0013338-1.1816445-.52129-2.3030699-1.427-3.062zm-1.527 5.42.579 3.477c.0485113.2899778-.033044.586611-.2229818.8110304-.1899379.2244194-.4690106.3538833-.7630182.3539696h-1.278c-.2940076-.0000863-.5730803-.1295502-.7630182-.3539696-.1899378-.2244194-.2714931-.5210526-.2229818-.8110304l.579-3.477c.0559776-.3325748-.05945-.6709618-.307-.9-.5081138-.4627073-.740434-1.155506-.614-1.831.159333-.808549.791451-1.440667 1.6-1.6.1213748-.0191457.2441301-.0281767.367-.027.4700862-.0019454.9254203.1640175 1.284.468.4534383.3796862.7155831.9405883.716 1.532-.0004918.5563421-.235372 1.0867284-.647 1.461-.2465755.2284072-.3619144.5654073-.307.897z" fill="#ff630e" data-original="#000000" style=""/></g></g></g></svg>
